<svg width="250" height="250" viewBox="0 0 250 250" fill="none" xmlns="http://www.w3.org/2000/svg">
<rect width="250" height="250" rx="84" fill="#A60F12"/>
<path d="M92.6591 87.2217C93.4579 87.2363 94.2568 87.2501 95.0556 87.2632C97.4136 87.3096 99.7693 87.3931 102.126 87.4899C103.07 87.5276 103.07 87.5276 104.033 87.5661C123.18 88.4586 145.604 91.6742 159.382 106.802C160.74 108.516 161.923 110.269 163.025 112.167C163.226 112.505 163.426 112.843 163.633 113.192C169.97 124.978 168.991 140.864 168.958 153.854C168.959 155.331 168.961 156.808 168.963 158.285C168.966 161.347 168.962 164.409 168.954 167.472C168.946 171.005 168.949 174.537 168.957 178.07C168.964 181.129 168.965 184.189 168.961 187.249C168.959 189.065 168.958 190.882 168.964 192.698C168.968 194.711 168.962 196.723 168.953 198.735C168.956 199.331 168.959 199.926 168.962 200.54C168.921 205.693 168.921 205.693 167.189 207.657C165.667 208.734 164.402 208.87 162.579 208.894C162.079 208.902 161.578 208.911 161.063 208.92C160.526 208.923 159.988 208.926 159.435 208.929C158.879 208.933 158.323 208.938 157.75 208.943C156.575 208.951 155.4 208.956 154.225 208.958C152.43 208.964 150.636 208.991 148.841 209.018C147.699 209.023 146.556 209.027 145.413 209.029C144.878 209.04 144.343 209.05 143.791 209.061C143.288 209.058 142.784 209.054 142.265 209.051C141.825 209.054 141.385 209.056 140.932 209.059C139.006 208.581 137.654 207.666 136.479 206.047C136.172 204.396 136.067 203.168 136.102 201.522C136.099 201.072 136.096 200.622 136.093 200.159C136.086 198.672 136.101 197.186 136.115 195.699C136.113 194.657 136.11 193.615 136.105 192.573C136.095 189.823 136.102 187.074 136.115 184.324C136.132 179.951 136.129 175.578 136.117 171.205C136.115 169.693 136.125 168.18 136.135 166.668C136.147 161.986 135.965 157.429 135.272 152.797C135.212 152.394 135.152 151.992 135.091 151.577C133.452 141.77 128.102 132.238 120.207 126.448C116.455 123.814 112.62 121.878 108.372 120.214C107.858 119.964 107.344 119.715 106.814 119.457C103.869 118.147 100.71 117.478 97.6039 116.693C96.9775 116.53 96.3512 116.368 95.7059 116.2C92.2083 115.306 88.7475 114.565 85.1745 114.074C83.1902 113.608 82.4662 112.785 81.3055 111.094C80.3273 108.07 80.5838 104.69 80.5456 101.518C80.5317 100.64 80.5104 99.7625 80.4815 98.8851C80.2142 90.662 80.2142 90.662 82.1086 88.523C85.1913 86.5933 89.1802 87.1125 92.6591 87.2217Z" fill="#FDF7F5"/>
<path d="M86.3808 130.675C86.7705 130.684 87.1601 130.694 87.5616 130.704C96.2602 131.039 106.702 133.015 113.333 139.204C120.197 146.917 120.144 157.051 120.1 166.911C120.101 168.022 120.103 169.133 120.106 170.244C120.109 172.553 120.105 174.861 120.095 177.169C120.083 180.126 120.09 183.082 120.102 186.038C120.11 188.324 120.107 190.609 120.102 192.895C120.101 193.985 120.102 195.076 120.107 196.167C120.112 197.686 120.104 199.203 120.093 200.722C120.097 201.169 120.101 201.617 120.106 202.078C120.076 204.198 119.967 205.271 118.863 207.118C117.034 208.871 115.434 208.804 113.034 208.833C112.386 208.842 111.738 208.85 111.07 208.859C110.362 208.865 109.654 208.871 108.946 208.876C108.589 208.879 108.231 208.882 107.863 208.885C105.974 208.899 104.084 208.91 102.195 208.917C100.633 208.924 99.0707 208.939 97.5087 208.961C95.6202 208.988 93.7321 209.001 91.8435 209.005C91.1251 209.008 90.4066 209.017 89.6883 209.029C88.6819 209.046 87.6753 209.045 86.6688 209.042C86.0967 209.047 85.5246 209.051 84.9352 209.056C82.8845 208.623 82.1087 207.675 80.7853 206.047C80.1185 204.673 80.1948 203.694 80.1882 202.155C80.1845 201.557 80.1808 200.959 80.1769 200.343C80.1755 199.684 80.1741 199.024 80.1727 198.345C80.1693 197.654 80.1659 196.962 80.1623 196.249C80.1533 194.348 80.1478 192.447 80.1435 190.546C80.1408 189.359 80.1376 188.171 80.1344 186.984C80.1245 183.269 80.117 179.554 80.1127 175.84C80.1076 171.551 80.0939 167.262 80.0729 162.973C80.0572 159.658 80.0495 156.344 80.0478 153.029C80.0465 151.049 80.0419 149.07 80.0288 147.09C80.0144 144.88 80.0166 142.672 80.0202 140.462C80.0135 139.807 80.0069 139.151 80 138.475C80.0264 134.068 80.0264 134.068 81.2057 131.877C82.8536 130.528 84.368 130.586 86.3808 130.675Z" fill="#FDF7F5"/>
<path d="M132.653 43.1399C133.756 43.8877 134.751 44.6853 135.661 45.5387C141.381 50.908 144.007 59.6124 141.556 67.065C141.072 68.5381 140.36 69.9771 139.334 71.3961C139.046 71.7965 138.758 72.1969 138.461 72.6095C135.795 75.8844 132.415 77.7225 128.733 78.7411C125.573 79.6152 122.191 79.7946 119.049 78.8597C115.892 77.9204 113.037 76.1514 110.591 73.542C110.317 73.2674 110.044 72.9929 109.762 72.7101C106.847 69.444 105.132 64.5814 104.989 60.0299C105.327 53.9773 107.558 49.8037 111.535 45.7467C113.261 44.154 114.804 43.249 116.924 42.4274C117.359 42.2421 117.794 42.0567 118.241 41.8658C122.901 40.3826 128.308 40.8037 132.653 43.1399Z" fill="#FDF7F5"/>
</svg>
