<svg width="91" height="63" viewBox="0 0 91 63" fill="none" xmlns="http://www.w3.org/2000/svg">
<path d="M63.5501 17.3269C63.8373 17.3324 64.1244 17.3376 64.4115 17.3425C65.259 17.3599 66.1057 17.3912 66.9527 17.4275C67.292 17.4416 67.292 17.4416 67.6382 17.456C74.5199 17.7906 82.5798 18.996 87.5318 24.667C88.02 25.3095 88.4451 25.9666 88.8414 26.678C88.9135 26.8048 88.9856 26.9316 89.0599 27.0622C91.3375 31.4803 90.9858 37.4356 90.9738 42.3049C90.9739 42.8586 90.9747 43.4123 90.9754 43.966C90.9764 45.1139 90.9751 46.2619 90.9724 47.4099C90.9694 48.7341 90.9704 50.0584 90.9735 51.3826C90.976 52.5296 90.9764 53.6765 90.9749 54.8234C90.974 55.5044 90.9739 56.1854 90.9758 56.8663C90.9772 57.6208 90.975 58.3751 90.9719 59.1295C90.973 59.3527 90.9742 59.5759 90.9753 59.8059C90.9604 61.7378 90.9604 61.7378 90.338 62.4737C89.7908 62.8775 89.3363 62.9286 88.681 62.9375C88.5012 62.9407 88.3213 62.9439 88.136 62.9472C87.9429 62.9483 87.7498 62.9494 87.5508 62.9505C87.351 62.9523 87.1513 62.9541 86.9455 62.956C86.5231 62.9589 86.1007 62.9607 85.6783 62.9615C85.0332 62.9639 84.3884 62.9737 83.7434 62.9839C83.3327 62.9858 82.9219 62.9873 82.5112 62.9882C82.3189 62.9921 82.1265 62.9961 81.9283 63.0001C81.7473 62.9989 81.5662 62.9977 81.3797 62.9964C81.2216 62.9974 81.0635 62.9985 80.9006 62.9995C80.2081 62.8204 79.7225 62.4773 79.3001 61.8704C79.1897 61.2516 79.1521 60.7911 79.1644 60.1739C79.1634 60.0053 79.1623 59.8368 79.1612 59.6631C79.1588 59.1057 79.1641 58.5487 79.1693 57.9914C79.1687 57.6007 79.1674 57.21 79.1656 56.8193C79.162 55.7886 79.1647 54.758 79.1691 53.7273C79.1755 52.088 79.1743 50.4487 79.1698 48.8094C79.1693 48.2424 79.1726 47.6755 79.1764 47.1085C79.1806 45.3535 79.1154 43.6451 78.8662 41.9086C78.8447 41.7578 78.8232 41.607 78.801 41.4516C78.2122 37.7751 76.2891 34.2021 73.4516 32.0315C72.103 31.0441 70.7246 30.3183 69.1977 29.6945C69.013 29.6009 68.8282 29.5074 68.6379 29.4109C67.5791 28.9197 66.4439 28.669 65.3274 28.3748C65.1023 28.3138 64.8772 28.2527 64.6452 28.1898C63.3881 27.8547 62.1442 27.5769 60.86 27.3929C60.1468 27.2181 59.8866 26.9099 59.4694 26.2758C59.1178 25.1421 59.21 23.8751 59.1963 22.6861C59.1913 22.3571 59.1836 22.028 59.1732 21.6991C59.0772 18.6166 59.0772 18.6166 59.7581 17.8147C60.866 17.0914 62.2997 17.286 63.5501 17.3269Z" fill="#A60F12"/>
<path d="M61.2934 33.6159C61.4335 33.6195 61.5735 33.6231 61.7178 33.6267C64.8443 33.7523 68.5973 34.493 70.9808 36.8131C73.4477 39.7046 73.4288 43.5035 73.4128 47.1995C73.4134 47.6161 73.4141 48.0326 73.415 48.4491C73.4161 49.3144 73.4145 50.1797 73.411 51.045C73.4067 52.1533 73.4092 53.2614 73.4137 54.3697C73.4164 55.2265 73.4155 56.0832 73.4136 56.9399C73.4131 57.3488 73.4137 57.7577 73.4155 58.1666C73.4174 58.7359 73.4145 59.3049 73.4103 59.8741C73.4118 60.0419 73.4133 60.2096 73.4149 60.3825C73.4041 61.1774 73.3649 61.5794 72.9683 62.2716C72.3108 62.929 71.7357 62.9038 70.8731 62.9146C70.6402 62.9179 70.4073 62.9211 70.1673 62.9244C69.9128 62.9267 69.6583 62.9289 69.4037 62.9308C69.2754 62.9319 69.147 62.933 69.0148 62.9341C68.3356 62.9395 67.6565 62.9434 66.9773 62.9463C66.4158 62.9489 65.8545 62.9545 65.293 62.9628C64.6143 62.9727 63.9356 62.9777 63.2568 62.9791C62.9986 62.9804 62.7404 62.9835 62.4822 62.9883C62.1205 62.9947 61.7587 62.9941 61.3969 62.9932C61.1913 62.9948 60.9857 62.9964 60.7738 62.9981C60.0367 62.8361 59.7579 62.4807 59.2823 61.8704C59.0426 61.3551 59.07 60.9883 59.0677 60.4112C59.0663 60.187 59.065 59.9629 59.0636 59.7319C59.0631 59.4849 59.0626 59.2378 59.0621 58.9832C59.0608 58.7239 59.0596 58.4646 59.0583 58.1974C59.0551 57.4848 59.0531 56.7723 59.0516 56.0597C59.0506 55.6145 59.0495 55.1694 59.0483 54.7242C59.0447 53.3317 59.0421 51.9392 59.0405 50.5466C59.0387 48.9388 59.0338 47.331 59.0262 45.7232C59.0206 44.4808 59.0178 43.2383 59.0172 41.9958C59.0167 41.2536 59.015 40.5115 59.0103 39.7693C59.0052 38.9411 59.006 38.1131 59.0073 37.285C59.0049 37.0391 59.0025 36.7933 59 36.54C59.0095 34.888 59.0095 34.888 59.4334 34.0665C60.0257 33.561 60.57 33.5826 61.2934 33.6159Z" fill="#A60F12"/>
<path d="M77.9246 0.802165C81.0564 3.01718 82.5219 7.6985 80.5759 11.0042C80.499 11.1347 80.4159 11.2648 80.3261 11.3944C80.2225 11.5445 80.1189 11.6946 80.0121 11.8493C79.8229 12.0917 79.6236 12.3132 79.4154 12.5154C76.9638 14.8974 72.5965 14.8799 70.212 12.4307C70.1387 12.3555 70.0664 12.2782 69.9951 12.1988C69.8967 12.0959 69.7983 11.993 69.6969 11.887C68.6494 10.6626 68.033 8.83982 67.9814 7.13365C68.1031 4.86472 68.9049 3.3002 70.3344 1.77938C70.9547 1.1823 71.5093 0.843067 72.2714 0.535081C72.4276 0.465607 72.5838 0.396134 72.7447 0.324555C74.4194 -0.231453 76.3631 -0.073595 77.9246 0.802165Z" fill="#A60F12"/>
<path d="M7.678 30.1537C6.69533 30.1537 5.77133 30.0437 4.906 29.8237C4.05533 29.6183 3.3 29.2883 2.64 28.8337C1.99467 28.3937 1.48867 27.8143 1.122 27.0957C0.755333 26.3917 0.572 25.541 0.572 24.5437C0.572 24.2063 0.594 23.825 0.638 23.3997C0.696667 22.9743 0.814 22.4683 0.99 21.8817C1.166 21.2803 1.43733 20.5837 1.804 19.7917L4.488 20.8257C4.28267 21.3537 4.114 21.801 3.982 22.1677C3.86467 22.5197 3.77667 22.8423 3.718 23.1357C3.674 23.4143 3.652 23.7077 3.652 24.0157C3.652 24.661 3.83533 25.211 4.202 25.6657C4.56867 26.135 5.08933 26.487 5.764 26.7217C6.45333 26.9563 7.26733 27.0737 8.206 27.0737C8.85133 27.0737 9.44533 27.0223 9.988 26.9197C10.5453 26.8317 11.044 26.6997 11.484 26.5237C11.924 26.3477 12.3127 26.1423 12.65 25.9077C12.9873 25.6877 13.266 25.4383 13.486 25.1597C13.7207 24.8957 13.8893 24.6243 13.992 24.3457C14.124 23.9643 14.2193 23.539 14.278 23.0697C14.3367 22.6003 14.366 22.109 14.366 21.5957C14.366 20.9503 14.3073 20.4077 14.19 19.9677C14.0727 19.5277 13.904 19.1977 13.684 18.9777C13.464 18.743 13.2 18.6257 12.892 18.6257C12.6867 18.6257 12.496 18.677 12.32 18.7797C12.1587 18.8823 12.012 19.0143 11.88 19.1757C11.7627 19.337 11.6673 19.513 11.594 19.7037C11.5353 19.8797 11.506 20.0557 11.506 20.2317C11.506 20.4223 11.55 20.5983 11.638 20.7597C11.726 20.9063 11.8947 21.031 12.144 21.1337C12.408 21.2217 12.804 21.2803 13.332 21.3097C13.86 21.3243 14.564 21.2877 15.444 21.1997L19.03 21.1777C19.5873 21.1777 19.9833 21.3243 20.218 21.6177C20.4527 21.8963 20.57 22.2483 20.57 22.6737C20.57 23.143 20.416 23.5317 20.108 23.8397C19.8 24.133 19.3673 24.2797 18.81 24.2797H13.442C12.606 24.2797 11.88 24.2063 11.264 24.0597C10.648 23.913 10.1347 23.693 9.724 23.3997C9.328 23.0917 9.02733 22.7177 8.822 22.2777C8.61667 21.8377 8.514 21.3317 8.514 20.7597C8.514 20.0997 8.63133 19.4617 8.866 18.8457C9.11533 18.215 9.45267 17.6577 9.878 17.1737C10.3033 16.6897 10.78 16.3083 11.308 16.0297C11.8507 15.7363 12.408 15.5897 12.98 15.5897C13.904 15.5897 14.696 15.8463 15.356 16.3597C16.0307 16.873 16.544 17.6063 16.896 18.5597C17.2627 19.4983 17.446 20.635 17.446 21.9697C17.446 22.6443 17.3433 23.3483 17.138 24.0817C16.9327 24.815 16.676 25.475 16.368 26.0617C16.0013 26.7363 15.5393 27.3303 14.982 27.8437C14.4247 28.357 13.7793 28.7823 13.046 29.1197C12.3127 29.4717 11.4987 29.7283 10.604 29.8897C9.70933 30.0657 8.734 30.1537 7.678 30.1537ZM14.872 13.5877C14.4467 13.5877 14.08 13.441 13.772 13.1477C13.4787 12.8397 13.332 12.4803 13.332 12.0697C13.332 11.6443 13.4787 11.2777 13.772 10.9697C14.08 10.6617 14.4467 10.5077 14.872 10.5077C15.2827 10.5077 15.6347 10.6617 15.928 10.9697C16.2213 11.2777 16.368 11.6443 16.368 12.0697C16.368 12.4803 16.2213 12.8397 15.928 13.1477C15.6347 13.441 15.2827 13.5877 14.872 13.5877ZM11.066 13.5657C10.6407 13.5657 10.274 13.419 9.966 13.1257C9.67267 12.8177 9.526 12.4583 9.526 12.0477C9.526 11.6223 9.67267 11.2557 9.966 10.9477C10.274 10.6397 10.6407 10.4857 11.066 10.4857C11.4767 10.4857 11.8287 10.6397 12.122 10.9477C12.4153 11.2557 12.562 11.6223 12.562 12.0477C12.562 12.4583 12.4153 12.8177 12.122 13.1257C11.8287 13.419 11.4767 13.5657 11.066 13.5657ZM18.8203 24.2797L19.0403 21.1997C19.5683 21.1997 20.023 21.1483 20.4043 21.0457C20.7856 20.943 21.1083 20.7377 21.3723 20.4297C21.6363 20.107 21.8563 19.6377 22.0323 19.0217C22.223 18.4057 22.3916 17.5843 22.5383 16.5577L25.4203 17.0417C25.391 17.2617 25.347 17.5183 25.2883 17.8117C25.2443 18.105 25.2003 18.4057 25.1563 18.7137C25.127 19.007 25.1123 19.2857 25.1123 19.5497C25.1123 19.8137 25.1636 20.0483 25.2663 20.2537C25.369 20.459 25.5303 20.635 25.7503 20.7817C25.985 20.9137 26.2856 21.0163 26.6523 21.0897C27.0336 21.163 27.4956 21.1997 28.0383 21.1997C28.5956 21.1997 28.9916 21.3463 29.2263 21.6397C29.461 21.9183 29.5783 22.2703 29.5783 22.6957C29.5783 23.1503 29.4243 23.5317 29.1163 23.8397C28.823 24.133 28.3903 24.2797 27.8183 24.2797C27.1583 24.2797 26.557 24.2283 26.0143 24.1257C25.4863 24.023 25.0243 23.8543 24.6283 23.6197C24.247 23.3703 23.9316 23.0477 23.6823 22.6517C23.4476 22.241 23.301 21.7423 23.2423 21.1557H24.2983C24.0343 21.8597 23.697 22.4243 23.2863 22.8497C22.8903 23.2603 22.443 23.5683 21.9443 23.7737C21.4456 23.979 20.925 24.111 20.3823 24.1697C19.8543 24.243 19.3336 24.2797 18.8203 24.2797ZM24.9583 29.3837C24.533 29.3837 24.1663 29.2297 23.8583 28.9217C23.565 28.6283 23.4183 28.2763 23.4183 27.8657C23.4183 27.4403 23.565 27.0737 23.8583 26.7657C24.1663 26.4577 24.533 26.3037 24.9583 26.3037C25.369 26.3037 25.721 26.4577 26.0143 26.7657C26.3076 27.0737 26.4543 27.4403 26.4543 27.8657C26.4543 28.2763 26.3076 28.6283 26.0143 28.9217C25.721 29.2297 25.369 29.3837 24.9583 29.3837ZM21.1523 29.3837C20.727 29.3837 20.3603 29.2297 20.0523 28.9217C19.759 28.6283 19.6123 28.2763 19.6123 27.8657C19.6123 27.4403 19.759 27.0737 20.0523 26.7657C20.3603 26.4577 20.727 26.3037 21.1523 26.3037C21.563 26.3037 21.915 26.4577 22.2083 26.7657C22.5016 27.0737 22.6483 27.4403 22.6483 27.8657C22.6483 28.2763 22.5016 28.6283 22.2083 28.9217C21.915 29.2297 21.563 29.3837 21.1523 29.3837ZM27.8223 24.2797L28.0423 21.2217C29.2596 21.2217 30.2349 21.2143 30.9683 21.1997C31.7163 21.185 32.2956 21.1557 32.7063 21.1117C33.1316 21.053 33.4469 20.987 33.6523 20.9137C33.8576 20.8257 34.0336 20.7303 34.1803 20.6277C34.3563 20.4957 34.5029 20.3197 34.6203 20.0997C34.7523 19.865 34.8549 19.557 34.9283 19.1757C35.0016 18.7943 35.0383 18.3177 35.0383 17.7457C35.0383 17.027 34.9723 16.4257 34.8403 15.9417C34.7229 15.443 34.5469 15.069 34.3123 14.8197C34.0923 14.5703 33.8209 14.4457 33.4983 14.4457C33.2636 14.4457 33.0436 14.5263 32.8383 14.6877C32.6329 14.8343 32.4643 15.0397 32.3323 15.3037C32.2003 15.5677 32.1343 15.8683 32.1343 16.2057C32.1343 16.3963 32.1856 16.565 32.2883 16.7117C32.3909 16.8583 32.5523 16.9683 32.7723 17.0417C32.9923 17.115 33.2709 17.1517 33.6083 17.1517C33.9309 17.1517 34.2683 17.115 34.6203 17.0417C34.9869 16.9537 35.3243 16.8363 35.6323 16.6897L35.7203 19.3077C35.4856 19.469 35.2143 19.6157 34.9063 19.7477C34.5983 19.8797 34.2683 19.9823 33.9163 20.0557C33.5789 20.1143 33.2343 20.1437 32.8823 20.1437C32.1049 20.1437 31.4303 20.041 30.8583 19.8357C30.3009 19.6157 29.8683 19.2637 29.5603 18.7797C29.2523 18.2957 29.0983 17.6357 29.0983 16.7997C29.0983 16.1543 29.2083 15.5163 29.4283 14.8857C29.6483 14.2403 29.9636 13.661 30.3743 13.1477C30.7849 12.6197 31.2689 12.2017 31.8263 11.8937C32.3836 11.571 32.9996 11.4097 33.6743 11.4097C34.6716 11.4097 35.4929 11.703 36.1383 12.2897C36.7983 12.8617 37.2823 13.639 37.5903 14.6217C37.9129 15.5897 38.0743 16.6677 38.0743 17.8557C38.0743 18.897 37.9203 19.8063 37.6123 20.5837C37.3043 21.3463 36.9376 21.9477 36.5123 22.3877C36.1603 22.7543 35.7569 23.0623 35.3023 23.3117C34.8476 23.561 34.2903 23.759 33.6303 23.9057C32.9849 24.0377 32.1856 24.133 31.2323 24.1917C30.2936 24.2503 29.1569 24.2797 27.8223 24.2797ZM33.6303 9.36368C33.1756 9.36368 32.7869 9.20968 32.4643 8.90168C32.1563 8.59368 32.0023 8.21234 32.0023 7.75768C32.0023 7.30301 32.1563 6.91434 32.4643 6.59168C32.7869 6.26901 33.1756 6.10768 33.6303 6.10768C34.0703 6.10768 34.4443 6.26901 34.7523 6.59168C35.0749 6.91434 35.2363 7.30301 35.2363 7.75768C35.2363 8.21234 35.0749 8.59368 34.7523 8.90168C34.4443 9.20968 34.0703 9.36368 33.6303 9.36368ZM38.6157 29.2297L37.4937 26.4137C38.755 25.9737 39.7743 25.4897 40.5517 24.9617C41.3437 24.4337 41.923 23.869 42.2897 23.2677C42.671 22.6663 42.8617 22.043 42.8617 21.3977C42.8617 20.987 42.803 20.5617 42.6857 20.1217C42.5683 19.667 42.3997 19.1903 42.1797 18.6917C41.9743 18.193 41.725 17.6723 41.4317 17.1297L44.3137 15.7437C44.827 16.7263 45.223 17.665 45.5017 18.5597C45.795 19.4543 45.9417 20.2903 45.9417 21.0677C45.9417 21.7863 45.8463 22.4757 45.6557 23.1357C45.4797 23.7957 45.201 24.4117 44.8197 24.9837C44.453 25.5703 43.9763 26.1203 43.3897 26.6337C42.803 27.147 42.1137 27.6163 41.3217 28.0417C40.5297 28.4817 39.6277 28.8777 38.6157 29.2297Z" fill="#A60F12"/>
<path d="M8.72 48.9151L12.48 55.7351H9.66L6.22 49.3351L8.72 48.9151ZM6.5 48.3951C7.26 48.3951 7.83333 48.3151 8.22 48.1551C8.60667 47.9818 8.86667 47.7284 9 47.3951C9.14667 47.0484 9.22 46.6151 9.22 46.0951C9.22 45.5484 9.14667 45.1018 9 44.7551C8.86667 44.3951 8.60667 44.1284 8.22 43.9551C7.83333 43.7818 7.26 43.6951 6.5 43.6951H4.04V48.3951H6.5ZM6.6 50.4951H4.04V55.7351H1.54V41.5951H6.58C7.86 41.5951 8.87333 41.7951 9.62 42.1951C10.3667 42.5818 10.9 43.1151 11.22 43.7951C11.5533 44.4618 11.72 45.2284 11.72 46.0951C11.72 46.6818 11.64 47.2418 11.48 47.7751C11.32 48.3084 11.0533 48.7818 10.68 49.1951C10.3067 49.5951 9.78667 49.9151 9.12 50.1551C8.45333 50.3818 7.61333 50.4951 6.6 50.4951ZM23.8659 55.7351H22.4459C21.8593 55.7351 21.4059 55.5351 21.0859 55.1351C20.7659 54.7351 20.5926 54.2018 20.5659 53.5351L21.0459 53.5751C20.8059 54.2818 20.4059 54.8551 19.8459 55.2951C19.2859 55.7218 18.5393 55.9351 17.6059 55.9351C16.8593 55.9351 16.1993 55.8218 15.6259 55.5951C15.0659 55.3684 14.6259 55.0218 14.3059 54.5551C13.9993 54.0751 13.8459 53.4751 13.8459 52.7551C13.8459 52.1151 13.9659 51.5884 14.2059 51.1751C14.4593 50.7484 14.7926 50.4151 15.2059 50.1751C15.6193 49.9351 16.0726 49.7684 16.5659 49.6751C17.0593 49.5684 17.5526 49.5151 18.0459 49.5151H20.5859V48.8351C20.5859 48.2351 20.4326 47.7951 20.1259 47.5151C19.8326 47.2218 19.3459 47.0751 18.6659 47.0751C17.9859 47.0751 17.4993 47.1951 17.2059 47.4351C16.9126 47.6618 16.7259 48.0218 16.6459 48.5151H14.2259C14.2793 47.8084 14.5059 47.2151 14.9059 46.7351C15.3193 46.2418 15.8526 45.8684 16.5059 45.6151C17.1726 45.3618 17.9126 45.2351 18.7259 45.2351C19.1793 45.2351 19.6459 45.2884 20.1259 45.3951C20.6193 45.4884 21.0793 45.6751 21.5059 45.9551C21.9326 46.2351 22.2793 46.6218 22.5459 47.1151C22.8126 47.5951 22.9459 48.2218 22.9459 48.9951V53.7951H23.8659V55.7351ZM16.1859 52.6751C16.1859 53.1551 16.3259 53.5084 16.6059 53.7351C16.8859 53.9618 17.3193 54.0751 17.9059 54.0751C18.7459 54.0751 19.3993 53.8751 19.8659 53.4751C20.3459 53.0751 20.5859 52.5418 20.5859 51.8751V51.1951H18.0659C17.4259 51.1951 16.9526 51.3218 16.6459 51.5751C16.3393 51.8284 16.1859 52.1951 16.1859 52.6751ZM28.8764 55.7351H26.4564V44.0151C26.4564 43.5351 26.5697 43.0951 26.7964 42.6951C27.0364 42.2951 27.3764 41.9751 27.8164 41.7351C28.2564 41.4951 28.7897 41.3751 29.4164 41.3751H31.4364V43.2951H28.8764V55.7351ZM24.8164 47.3751V45.4351H31.1564V47.3751H24.8164ZM35.2164 45.4351V55.7351H32.7964V45.4351H35.2164ZM32.7164 41.3751H35.2764V43.9151H32.7164V41.3751ZM45.0811 45.4351H47.5011V59.7751H45.0811V45.4351ZM41.8011 55.9351C40.4811 55.9351 39.4144 55.4884 38.6011 54.5951C37.8011 53.7018 37.4011 52.3751 37.4011 50.6151C37.4011 49.3751 37.5878 48.3618 37.9611 47.5751C38.3478 46.7751 38.8744 46.1884 39.5411 45.8151C40.2211 45.4284 40.9744 45.2351 41.8011 45.2351C42.8011 45.2351 43.6011 45.4751 44.2011 45.9551C44.8144 46.4218 45.2611 47.0618 45.5411 47.8751C45.8211 48.6751 45.9611 49.5884 45.9611 50.6151C45.9611 51.6151 45.8211 52.5218 45.5411 53.3351C45.2611 54.1351 44.8144 54.7684 44.2011 55.2351C43.6011 55.7018 42.8011 55.9351 41.8011 55.9351ZM42.4811 54.0151C43.3744 54.0151 44.0278 53.7284 44.4411 53.1551C44.8678 52.5684 45.0811 51.7151 45.0811 50.5951C45.0811 49.4751 44.8678 48.6218 44.4411 48.0351C44.0278 47.4484 43.3744 47.1551 42.4811 47.1551C41.5744 47.1551 40.9011 47.4484 40.4611 48.0351C40.0344 48.6218 39.8211 49.4751 39.8211 50.5951C39.8211 51.7151 40.0344 52.5684 40.4611 53.1551C40.9011 53.7284 41.5744 54.0151 42.4811 54.0151Z" fill="#A60F12"/>
</svg>
